<?xml version="1.0" encoding="UTF-8"?>
<svg width="24px" height="30px" viewBox="0 0 24 30" version="1.1" xmlns="http://www.w3.org/2000/svg" xmlns:xlink="http://www.w3.org/1999/xlink">
    <!-- Generator: Sketch 48.2 (47327) - http://www.bohemiancoding.com/sketch -->
    <title>Combined Shape</title>
    <desc>Created with Sketch.</desc>
    <defs></defs>
    <g id="Mobile_Landing-Page-2" stroke="none" stroke-width="1" fill="none" fill-rule="evenodd" transform="translate(-148.000000, -1679.000000)">
        <g id="Group-9" transform="translate(-9.000000, 1458.000000)" fill="#FFFFFF">
            <g id="Group-4" transform="translate(67.000000, 221.000000)">
                <path d="M107.312114,30 C106.32151,29.6878205 105.327244,29.3868188 104.341086,29.0613325 C103.072757,28.6424318 101.816457,28.6820863 100.565388,29.1209473 C99.7471193,29.4081098 98.932512,29.7064502 98.1163357,30 L97.196601,30 C95.8879992,29.6311332 94.9630343,28.741435 94.1573184,27.6869976 C91.1855057,23.7965973 89.5625675,19.4638761 90.1028495,14.4729966 C90.6705902,9.23247989 95.5948452,5.64574263 100.316691,8.04098158 C101.587896,8.68583314 102.803139,8.62675058 104.081928,8.02288422 C105.443094,7.37989563 106.879051,7.02406958 108.413076,7.25773845 C110.404745,7.56086924 112.042328,8.4375267 113.222527,10.1605019 C111.108733,11.6889305 109.897413,13.6620751 110.080732,16.3468718 C110.263529,19.0231522 111.704978,20.8241057 114,22.0140072 C113.419707,23.8644624 112.527169,25.5020074 111.428822,27.0426783 C110.434818,28.4377719 109.379882,29.7154988 107.574933,30 L107.312114,30 Z M107.715811,0 C108.036163,3.6181415 105.080825,7.13781207 101.768002,6.86821462 C101.847763,6.22522603 101.842794,5.56014802 102.021406,4.95069277 C102.774035,2.37687545 104.456859,0.763282812 107.025945,0.117100571 C107.127934,0.0918174931 107.223124,0.0396545115 107.321714,0 L107.715811,0 Z" id="Combined-Shape"></path>
            </g>
        </g>
    </g>
</svg>