<?xml version="1.0" encoding="UTF-8"?>
<svg width="32px" height="30px" viewBox="0 0 32 30" version="1.1" xmlns="http://www.w3.org/2000/svg" xmlns:xlink="http://www.w3.org/1999/xlink">
    <!-- Generator: Sketch 48.2 (47327) - http://www.bohemiancoding.com/sketch -->
    <title>Combined Shape</title>
    <desc>Created with Sketch.</desc>
    <defs></defs>
    <g id="Mobile_Landing-Page-2" stroke="none" stroke-width="1" fill="none" fill-rule="evenodd" transform="translate(-146.000000, -2450.000000)">
        <g id="Group-9" transform="translate(-9.000000, 1458.000000)" fill="#FFFFFF">
            <g id="Group-8" transform="translate(42.000000, 992.000000)">
                <path d="M133.244378,4.07547965 C133.244378,6.65190808 131.3774,8.74077588 129.075172,8.74077588 C126.772667,8.74077588 124.905689,6.65190808 124.905689,4.07547965 C124.905689,1.49878769 126.772667,0 129.075172,0 C131.3774,0 133.244378,1.49878769 133.244378,4.07547965 Z M121.248981,10.5199768 C121.248981,12.5060616 119.898378,14.1155387 118.232135,14.1155387 C116.565615,14.1155387 115.215012,12.5060616 115.215012,10.5199768 C115.215012,8.5341556 116.565615,7.3792958 118.232135,7.3792958 C119.898378,7.3792958 121.248981,8.5341556 121.248981,10.5199768 Z M135.715501,16.6184377 C136.684015,15.5455408 138.116851,14.863483 139.719689,14.863483 C142.636029,14.863483 145,17.1139047 145,19.8898377 L145,30 L135.456621,30 L134.438823,30 L123.561454,30 L122.543656,30 L113,30 L113,19.8898377 C113,17.1139047 115.363971,14.863483 118.280588,14.863483 C119.883149,14.863483 121.316262,15.5455408 122.284499,16.6184377 L122.284499,15.8797175 C122.284499,12.3495151 125.291378,9.48766603 129.000138,9.48766603 C132.708899,9.48766603 135.715501,12.3495151 135.715501,15.8797175 L135.715501,16.6184377 Z M142.845347,10.5199768 C142.845347,12.5060616 141.494744,14.1155387 139.828224,14.1155387 C138.161981,14.1155387 136.811378,12.5060616 136.811378,10.5199768 C136.811378,8.5341556 138.161981,7.3792958 139.828224,7.3792958 C141.494744,7.3792958 142.845347,8.5341556 142.845347,10.5199768 Z" id="Combined-Shape"></path>
            </g>
        </g>
    </g>
</svg>