<?xml version="1.0" encoding="UTF-8"?>
<svg width="24px" height="24px" viewBox="0 0 24 24" version="1.1" xmlns="http://www.w3.org/2000/svg" xmlns:xlink="http://www.w3.org/1999/xlink">
    <!-- Generator: Sketch 47.1 (45422) - http://www.bohemiancoding.com/sketch -->
    <title>Page 1</title>
    <desc>Created with Sketch.</desc>
    <defs></defs>
    <g id="Symbols" stroke="none" stroke-width="1" fill="none" fill-rule="evenodd">
        <g id="Mobile-Footer" transform="translate(-31.000000, -30.000000)" fill="#192534">
            <g id="Page-1" transform="translate(31.000000, 30.000000)">
                <g id="Group-3" transform="translate(0.000000, 16.487937)">
                    <path d="M22.965125,1.7765 L20.33325,0.519 C20.107625,0.410875 19.73825,0.410875 19.512625,0.519 L11.977625,4.119625 C11.752,4.22775 11.382625,4.22775 11.157,4.119625 L3.622,0.519 C3.39575,0.410875 3.026375,0.410875 2.80075,0.519 L0.1695,1.7765 C-0.056125,1.884625 -0.056125,2.060875 0.1695,2.169 L11.157,7.419 C11.382625,7.527125 11.752,7.527125 11.977625,7.419 L22.965125,2.169 C23.19075,2.060875 23.19075,1.884625 22.965125,1.7765" id="Fill-1"></path>
                </g>
                <path d="M22.965125,11.79775 L20.33325,10.54025 C20.107625,10.432125 19.73825,10.432125 19.512625,10.54025 L11.977625,14.140875 C11.752,14.249 11.382625,14.249 11.157,14.140875 L3.622,10.54025 C3.39575,10.432125 3.026375,10.432125 2.80075,10.54025 L0.1695,11.79775 C-0.056125,11.905875 -0.056125,12.082125 0.1695,12.19025 L11.157,17.44025 C11.382625,17.548375 11.752,17.548375 11.977625,17.44025 L22.965125,12.19025 C23.19075,12.082125 23.19075,11.905875 22.965125,11.79775" id="Fill-4"></path>
                <path d="M0.16925,5.7235625 L11.15675,10.9735625 C11.382375,11.0816875 11.75175,11.0816875 11.977375,10.9735625 L22.964875,5.7235625 C23.1905,5.6154375 23.1905,5.4391875 22.964875,5.3310625 L11.977375,0.0810625 C11.75175,-0.0270625 11.382375,-0.0270625 11.15675,0.0810625 L0.16925,5.3310625 C-0.056375,5.4391875 -0.056375,5.6154375 0.16925,5.7235625" id="Fill-6"></path>
            </g>
        </g>
    </g>
</svg>