<?xml version="1.0" encoding="UTF-8"?>
<svg width="20px" height="30px" viewBox="0 0 20 30" version="1.1" xmlns="http://www.w3.org/2000/svg" xmlns:xlink="http://www.w3.org/1999/xlink">
    <!-- Generator: Sketch 48.2 (47327) - http://www.bohemiancoding.com/sketch -->
    <title>Combined Shape</title>
    <desc>Created with Sketch.</desc>
    <defs></defs>
    <g id="Mobile_Landing-Page-2" stroke="none" stroke-width="1" fill="none" fill-rule="evenodd" transform="translate(-150.000000, -2155.000000)">
        <g id="Group-9" transform="translate(-9.000000, 1458.000000)" fill="#FFFFFF">
            <g id="Group-6" transform="translate(49.000000, 697.000000)">
                <path d="M120.000254,0 C126.372763,0 130,4.32221087 130,10.345116 C130,18.4384778 122.178421,27.7640266 120.360746,29.8222729 C120.155909,30.0537393 119.810374,30.0601099 119.598945,29.835545 C117.760229,27.8805562 110,19.1103144 110,10.345116 C110,5.16180756 113.599858,0 120.000254,0 Z M120.000177,13.5169494 C121.470288,13.5169494 122.662044,12.2691011 122.662044,10.7297962 C122.662044,9.19049139 121.470288,7.94264313 120.000177,7.94264313 C118.529813,7.94264313 117.338311,9.19049139 117.338311,10.7297962 C117.338311,12.2691011 118.529813,13.5169494 120.000177,13.5169494 Z" id="Combined-Shape"></path>
            </g>
        </g>
    </g>
</svg>