<?xml version="1.0" encoding="UTF-8"?>
<svg width="31px" height="30px" viewBox="0 0 31 30" version="1.1" xmlns="http://www.w3.org/2000/svg" xmlns:xlink="http://www.w3.org/1999/xlink">
    <!-- Generator: Sketch 48.2 (47327) - http://www.bohemiancoding.com/sketch -->
    <title>Fill 24</title>
    <desc>Created with Sketch.</desc>
    <defs></defs>
    <g id="Mobile_Landing-Page-2" stroke="none" stroke-width="1" fill="none" fill-rule="evenodd" transform="translate(-145.000000, -1981.000000)">
        <g id="Group-9" transform="translate(-9.000000, 1458.000000)" fill="#FFFFFF">
            <g id="Group-5" transform="translate(49.000000, 523.000000)">
                <path d="M123.152237,10.2626638 L123.152237,2.62799491 C123.152237,1.18233332 121.958791,0 120.499867,0 C119.041209,0 117.847496,1.18233332 117.847496,2.62799491 L117.847496,10.2626638 L105.342052,17.6213139 C105.127803,17.7656686 105,18.0057309 105,18.2621851 L105,22.9835868 C105,23.5358888 105.565907,23.9113166 106.080852,23.7006011 L117.847496,19.5444563 L117.847496,23.0457175 C117.847496,23.1482992 117.854967,23.2490302 117.866706,23.348968 L114.042234,26.3455167 C113.854399,26.4927796 113.745006,26.7167144 113.745006,26.9538685 L113.745006,29.2236206 C113.745006,29.7941652 114.346398,30.169593 114.86588,29.9229211 L119.635398,28.4280837 C120.198103,28.2520028 120.80163,28.2520028 121.364602,28.4280837 L126.13412,29.9229211 C126.653602,30.169593 127.254727,29.7941652 127.254727,29.2236206 L127.254727,26.9538685 C127.254727,26.7167144 127.145335,26.4927796 126.957766,26.3455167 L123.133027,23.348968 C123.144767,23.2490302 123.152237,23.1482992 123.152237,23.0457175 L123.152237,19.5444563 L134.918614,23.7006011 C135.433827,23.9113166 136,23.5358888 136,22.9835868 L136,18.2621851 C136,18.0057309 135.871931,17.7656686 135.657948,17.6213139 L123.152237,10.2626638 Z" id="Fill-24"></path>
            </g>
        </g>
    </g>
</svg>