<?xml version="1.0" encoding="UTF-8"?>
<svg width="35px" height="35px" viewBox="0 0 35 35" version="1.1" xmlns="http://www.w3.org/2000/svg" xmlns:xlink="http://www.w3.org/1999/xlink">
    <!-- Generator: Sketch 48.2 (47327) - http://www.bohemiancoding.com/sketch -->
    <title>Group 31</title>
    <desc>Created with Sketch.</desc>
    <defs></defs>
    <g id="2_Product-Page" stroke="none" stroke-width="1" fill="none" fill-rule="evenodd" transform="translate(-623.000000, -7713.000000)">
        <g id="Card" transform="translate(499.000000, 7312.000000)">
            <g id="Group-31" transform="translate(124.000000, 401.000000)">
                <circle id="Oval" fill="#CBCBCB" cx="17.5" cy="17.5" r="17.5"></circle>
                <path d="M24.9603803,13.0564156 C25.7390826,12.551906 26.3365909,11.7519312 26.61701,10.7989687 C25.8879204,11.267275 25.0822548,11.6059505 24.2226624,11.7893023 C23.5367142,10.9951668 22.5563259,10.5 21.4713198,10.5 C19.3897473,10.5 17.7029186,12.3276795 17.7029186,14.5816229 C17.7029186,14.9016127 17.7341962,15.2134277 17.7989083,15.5112285 C14.6668428,15.340723 11.8896152,13.7174166 10.0291425,11.2462538 C9.70450343,11.8511982 9.51899542,12.551906 9.51899542,13.2993276 C9.51899542,14.7147573 10.1844515,15.9643529 11.1961173,16.6977604 C10.5781167,16.6767391 9.99678641,16.4910516 9.48771791,16.1874115 L9.48771791,16.2376289 C9.48771791,18.2159606 10.786274,19.8661274 12.5130085,20.2398382 C12.1959192,20.3356016 11.8637304,20.3834833 11.5185992,20.3834833 C11.2759289,20.3834833 11.0386512,20.3589585 10.8100018,20.3110768 C11.2888713,21.9320475 12.6812599,23.113908 14.3314184,23.1454398 C13.040412,24.2408797 11.4150599,24.8925379 9.64949815,24.8925379 C9.34535129,24.8925379 9.04444004,24.8750202 8.75,24.8364813 C10.4184936,25.993817 12.3997623,26.67 14.5287903,26.67 C21.46377,26.67 25.2537419,20.4500506 25.2537419,15.0557685 C25.2537419,14.8782558 25.2515848,14.701911 25.244035,14.5279019 C25.9806744,13.9521537 26.6213242,13.2327604 27.125,12.4141001 C26.4487586,12.7387614 25.721826,12.9583165 24.9603803,13.0564156 Z" id="Shape" fill="#FFFFFF"></path>
            </g>
        </g>
    </g>
</svg>