<?xml version="1.0" encoding="UTF-8"?>
<svg width="30px" height="30px" viewBox="0 0 30 30" version="1.1" xmlns="http://www.w3.org/2000/svg" xmlns:xlink="http://www.w3.org/1999/xlink">
    <!-- Generator: Sketch 48.2 (47327) - http://www.bohemiancoding.com/sketch -->
    <title>Group 38</title>
    <desc>Created with Sketch.</desc>
    <defs></defs>
    <g id="Mobile_Landing-Page-2" stroke="none" stroke-width="1" fill="none" fill-rule="evenodd" transform="translate(-145.000000, -2303.000000)">
        <g id="Group-9" transform="translate(-9.000000, 1458.000000)" fill="#FFFFFF">
            <g id="Group-7" transform="translate(0.000000, 845.000000)">
                <g id="Group-38" transform="translate(154.000000, 0.000000)">
                    <g id="Group-37">
                        <path d="M22.0118793,9.51521053 L26.0649828,13.6394211 C26.9748103,11.9573158 26.7301552,9.801 25.3286897,8.37494737 C25.2262759,8.27073684 25.1189483,8.17468421 25.0092931,8.08284211 L28.3348966,8.08284211 C27.8686034,6.44731579 26.5010172,5.20415789 24.8153276,4.94284211 L27.5533448,2.15678947 C25.8999828,1.231 23.7811034,1.47968421 22.3796379,2.90573684 C22.2821379,3.00521053 22.1913621,3.10863158 22.1052414,3.21442105 C21.740069,1.66968421 20.5806724,0.439947368 19.0894655,-5.26315791e-05 L19.0894655,3.38915789 C18.9661034,3.221 18.8318793,3.05863158 18.6818793,2.90573684 C17.2804138,1.47968421 15.1615345,1.231 13.5081724,2.15678947 L16.2461897,4.94284211 C14.5605,5.20415789 13.1926552,6.44731579 12.7266207,8.08284211 L16.0522241,8.08284211 C15.942569,8.17468421 15.8352414,8.27073684 15.7328276,8.37494737 C14.3313621,9.801 14.0864483,11.9573158 14.9965345,13.6394211 L19.0496379,9.51521053 L18.4563621,18.9654737 C17.3347241,18.7041579 16.1680862,18.5631053 14.9686034,18.5631053 C7.8692069,18.5631053 1.88291379,23.3941579 0.000155172414,29.9999474 L29.9367931,29.9999474 C28.8019655,26.0175789 26.1741207,22.6825789 22.7114483,20.6599474 L22.0118793,9.51521053 Z" id="Fill-1"></path>
                        <path d="M7.40301724,14.8026316 C9.20637931,14.8026316 10.6681034,13.3152632 10.6681034,11.4802632 C10.6681034,9.64526316 9.20637931,8.15789474 7.40301724,8.15789474 C5.59965517,8.15789474 4.13793103,9.64526316 4.13793103,11.4802632 C4.13793103,13.3152632 5.59965517,14.8026316 7.40301724,14.8026316" id="Fill-4"></path>
                    </g>
                </g>
            </g>
        </g>
    </g>
</svg>