<?xml version="1.0" encoding="UTF-8"?>
<svg width="55px" height="55px" viewBox="0 0 55 55" version="1.1" xmlns="http://www.w3.org/2000/svg" xmlns:xlink="http://www.w3.org/1999/xlink">
    <!-- Generator: Sketch 47.1 (45422) - http://www.bohemiancoding.com/sketch -->
    <title>Analyze Icon</title>
    <desc>Created with Sketch.</desc>
    <defs>
        <polygon id="path-1" points="7.52847352 0.6103 7.52847352 7.7203 0.439825545 7.7203 0.439825545 0.6103 7.52847352 0.6103"></polygon>
    </defs>
    <g id="Desktop-Site" stroke="none" stroke-width="1" fill="none" fill-rule="evenodd">
        <g id="1_Homepage" transform="translate(-188.000000, -2022.000000)">
            <g id="Group-2" transform="translate(186.000000, 2022.000000)">
                <g id="Buffer-Analyze">
                    <g id="Analyze-Icon" transform="translate(1.993769, 0.000000)">
                        <path d="M8.02766355,46.93475 C-2.67588785,36.19775 -2.67588785,18.78975 8.02766355,8.05275 C18.731215,-2.68425 36.0849844,-2.68425 46.7885358,8.05275 C57.4920872,18.78975 57.4920872,36.19775 46.7885358,46.93475 C36.0849844,57.67175 18.731215,57.67175 8.02766355,46.93475 Z" id="Fill-1" fill="#23E6BF"></path>
                        <g id="Page-1" transform="translate(8.971963, 12.000000)">
                            <g id="Group-3" transform="translate(27.912773, 0.389800)">
                                <mask id="mask-2" fill="white">
                                    <use xlink:href="#path-1"></use>
                                </mask>
                                <g id="Clip-2"></g>
                                <path d="M7.5286729,4.1653 C7.5286729,6.1293 5.9416324,7.7203 3.98474766,7.7203 C2.02686604,7.7203 0.439825545,6.1293 0.439825545,4.1653 C0.439825545,2.2023 2.02686604,0.6103 3.98474766,0.6103 C5.9416324,0.6103 7.5286729,2.2023 7.5286729,4.1653" id="Fill-1" fill="#192534" mask="url(#mask-2)"></path>
                            </g>
                            <polygon id="Fill-4" fill="#192534" points="5.29864174 25.5939 4.1522243 24.7569 12.0545296 13.8579 23.3233146 19.0389 31.0392025 4.9249 32.2823178 5.6079 23.9324112 20.8839 12.518081 15.6359"></polygon>
                            <path d="M7.08824922,26.8347 C7.08824922,28.7977 5.50120872,30.3897 3.54432399,30.3897 C1.58644237,30.3897 0.000398753894,28.7977 0.000398753894,26.8347 C0.000398753894,24.8707 1.58644237,23.2797 3.54432399,23.2797 C5.50120872,23.2797 7.08824922,24.8707 7.08824922,26.8347" id="Fill-6" fill="#192534"></path>
                            <path d="M15.5943676,14.9838 C15.5943676,16.9478 14.0073271,18.5388 12.0504424,18.5388 C10.0925607,18.5388 8.50552025,16.9478 8.50552025,14.9838 C8.50552025,13.0208 10.0925607,11.4288 12.0504424,11.4288 C14.0073271,11.4288 15.5943676,13.0208 15.5943676,14.9838" id="Fill-8" fill="#192534"></path>
                            <path d="M26.9356262,19.2502 C26.9356262,21.2132 25.3485857,22.8052 23.3917009,22.8052 C21.4338193,22.8052 19.8467788,21.2132 19.8467788,19.2502 C19.8467788,17.2862 21.4338193,15.6952 23.3917009,15.6952 C25.3485857,15.6952 26.9356262,17.2862 26.9356262,19.2502" id="Fill-10" fill="#192534"></path>
                        </g>
                    </g>
                </g>
            </g>
        </g>
    </g>
</svg>