<?xml version="1.0" encoding="UTF-8"?>
<svg width="169px" height="87px" viewBox="0 0 169 87" version="1.1" xmlns="http://www.w3.org/2000/svg" xmlns:xlink="http://www.w3.org/1999/xlink">
    <!-- Generator: Sketch 48.1 (47250) - http://www.bohemiancoding.com/sketch -->
    <title>broncos</title>
    <desc>Created with Sketch.</desc>
    <defs>
        <polygon id="path-1" points="155.144 0.157592831 155.144 63.9999 0.1399 63.9999 0.1399 0.157592831 155.144 0.157592831"></polygon>
        <polygon id="path-3" points="0.3697 0.415 72.4287 0.415 72.4287 21.955 0.3697 21.955 0.3697 0.415"></polygon>
        <polygon id="path-5" points="1.92500096e-16 10.7436311 1.92500096e-16 0.542275087 28.2856 0.542275087 28.2856 10.7436311"></polygon>
    </defs>
    <g id="2_Product-Page" stroke="none" stroke-width="1" fill="none" fill-rule="evenodd" transform="translate(-244.000000, -4171.000000)">
        <g id="broncos" transform="translate(244.000000, 4170.000000)">
            <g id="Group-3" transform="translate(13.000000, 23.585300)">
                <mask id="mask-2" fill="white">
                    <use xlink:href="#path-1"></use>
                </mask>
                <g id="Clip-2"></g>
                <path d="M107.6929,8.1919 C107.7899,8.0689 107.8849,7.9459 107.9809,7.8229 C106.2129,6.4129 104.4429,5.0019 102.6729,3.5909 C102.5569,3.7219 102.4399,3.8529 102.3239,3.9849 C102.5379,4.4909 102.7519,4.9979 103.0349,5.6699 C102.1269,5.5949 101.4219,5.5379 100.7159,5.4789 L100.6669,5.6899 C103.0089,6.5239 105.3509,7.3579 107.6929,8.1919 M149.7089,40.4909 C149.0829,38.6859 146.8459,37.1699 149.7129,35.1649 L145.4539,35.1649 C145.9179,37.8299 147.5269,39.2329 149.7089,40.4909 M118.2209,16.9969 C116.0949,15.9869 113.8979,14.9439 111.7019,13.9009 C111.6249,14.0289 111.5469,14.1579 111.4699,14.2859 C113.6319,16.1659 115.7949,18.0459 117.9729,19.9409 C118.0609,18.8979 118.1349,18.0159 118.2209,16.9969 M119.3329,21.0539 L119.1479,21.4089 C119.7909,21.4089 120.6299,21.6659 121.0339,21.3559 C121.9219,20.6749 122.5259,20.9389 123.3279,21.4199 C127.1489,23.7069 130.9949,25.9519 134.8429,28.1919 C135.7809,28.7379 136.7629,29.2059 137.7239,29.7099 C137.8339,29.5159 137.9429,29.3219 138.0519,29.1289 C132.7599,25.7539 127.4689,22.3779 122.5579,19.2449 C121.1719,20.0219 120.2529,20.5389 119.3329,21.0539 M153.4729,50.3219 C151.6549,48.8479 149.8729,47.3229 148.0059,45.9099 C145.2189,43.7999 142.1969,42.1419 138.7199,41.4319 C136.2879,40.9359 133.7409,41.9399 132.9479,43.7589 C132.0529,45.8149 132.8479,48.2779 135.3219,49.5589 C137.5829,50.7309 140.1079,51.3899 142.5569,52.2909 C142.0469,54.2619 140.9639,54.9629 138.6179,54.5039 C138.2539,54.4319 137.8819,54.3749 137.5109,54.3579 C134.5839,54.2249 132.1909,53.8359 130.6829,50.4819 C129.0059,46.7549 125.0069,45.1359 121.5919,43.0829 C118.8719,41.4459 116.4399,41.2129 113.3649,42.4019 C107.0999,44.8279 100.8569,44.6269 95.1489,40.5249 C93.5709,39.3899 92.1629,39.1099 90.1249,39.9359 C79.2379,44.3519 72.1189,51.9439 69.3799,63.9999 C66.6649,58.8829 65.2489,53.5409 61.0499,49.1719 C63.3939,46.4099 65.4709,43.2279 68.2549,40.8859 C71.0219,38.5589 74.4989,37.0769 77.6119,35.2539 C69.3659,35.6709 62.3289,39.0929 56.6109,44.6229 C51.0069,41.9009 45.5759,39.2629 40.0119,36.5609 C43.1019,33.2849 46.6989,30.6269 50.6929,28.4809 C59.7139,23.6339 69.3829,21.7419 79.5519,22.2499 C81.5269,22.3479 83.4909,22.7089 85.4499,23.0099 C86.5149,23.1739 87.1549,23.7189 87.7009,24.8239 C89.4699,28.4109 90.9509,32.3659 93.5579,35.2639 C98.7199,41.0029 105.5649,41.5979 112.7419,39.6229 C113.6299,39.3789 114.5929,39.1809 115.3389,38.6869 C117.9139,36.9859 120.3919,37.6669 122.8919,38.7709 C124.2299,39.3619 125.5579,39.9769 126.8909,40.5809 C126.9879,40.3959 127.0849,40.2129 127.1819,40.0279 C124.0469,38.2779 120.9299,36.4929 117.7519,34.8269 C117.3959,34.6399 116.6539,35.0579 116.1489,35.3119 C111.0109,37.8899 105.8429,39.1749 100.4209,36.0499 C95.5109,33.2209 93.7009,28.6329 93.2159,23.3579 C93.0909,21.9969 92.6969,21.2589 91.4569,20.6739 C85.1869,17.7169 78.9339,14.7329 72.1489,13.1059 C70.9899,12.8279 69.8039,12.6649 68.1459,12.3589 C69.5809,14.5449 70.7209,16.2839 72.0219,18.2659 C69.5449,18.4729 67.3049,18.6939 65.0609,18.8409 C53.0389,19.6289 41.6789,22.7379 31.0869,28.5259 C29.4559,29.4169 27.7629,30.2479 26.2919,31.3619 C24.5709,32.6659 22.9139,32.8989 20.8369,32.3369 C14.1619,30.5269 7.4639,28.8199 1.2689,25.6219 C0.9979,25.4809 0.7409,25.3129 0.1399,24.9589 C2.8879,23.2029 5.4199,21.5039 8.0279,19.9319 C21.2619,11.9589 35.3209,6.0249 50.5209,2.9909 C59.9389,1.1119 69.4539,0.1549 79.0229,1.3079 C84.6449,1.9859 90.1949,3.2589 95.7789,4.2569 C96.0799,4.3109 96.3919,4.2999 97.0019,3.9039 C95.5949,2.7199 94.1889,1.5379 92.6729,0.2609 C95.1889,-0.1021 97.6009,0.5519 99.9579,1.2839 C104.4559,2.6789 108.6699,4.5409 111.2349,8.8789 C111.5279,9.3759 112.3029,9.6479 112.9099,9.8899 C117.5419,11.7439 122.1869,13.5629 127.0899,15.4959 C126.3659,16.3209 125.8979,16.8529 125.6149,17.1749 C134.4229,22.9439 143.2019,28.7179 152.0229,34.4259 C152.8989,34.9929 153.2009,35.4749 152.9859,36.4879 C152.7439,37.6279 152.4969,38.8359 152.6369,39.9649 C152.7839,41.1369 153.1679,42.4109 153.8409,43.3599 C155.6259,45.8719 155.6469,47.5759 153.4729,50.3219" id="Fill-1" fill="#192534" mask="url(#mask-2)"></path>
            </g>
            <g id="Group-6" transform="translate(28.000000, 0.585300)">
                <mask id="mask-4" fill="white">
                    <use xlink:href="#path-3"></use>
                </mask>
                <g id="Clip-5"></g>
                <path d="M0.3697,4.938 C1.8907,5.889 2.9977,6.648 4.1657,7.296 C8.4087,9.657 12.6687,9.864 17.1067,7.654 C21.2457,5.593 25.3717,3.345 29.7497,1.958 C40.8847,-1.573 50.9817,1.171 60.1787,7.987 C64.6707,11.316 68.4387,15.313 71.4007,20.059 C71.7227,20.573 71.9807,21.125 72.4287,21.955 C64.8067,21.458 57.4497,20.977 50.0567,20.495 C48.3857,18.663 46.6807,16.436 44.6187,14.612 C40.7997,11.231 36.2037,10.957 31.4827,12.144 C25.9237,13.543 20.4197,15.162 14.8597,16.562 C8.8717,18.071 5.1147,16.207 2.5847,10.585 C1.8147,8.876 1.2087,7.094 0.3697,4.938" id="Fill-4" fill="#192534" mask="url(#mask-4)"></path>
            </g>
            <path d="M16.2916,5.9149 C16.8556,8.3749 17.2476,10.8909 18.0206,13.2829 C19.9326,19.2009 23.1426,21.3769 29.6096,21.8689 C36.0426,22.3579 42.0586,20.2459 48.1616,18.7279 C52.4256,17.6669 56.6886,16.2919 61.1306,17.0919 C63.3996,17.4999 65.6226,18.3869 67.7356,19.3449 C68.6976,19.7809 69.3456,20.9139 70.5236,22.1329 C67.8126,22.5499 65.6986,22.8349 63.6016,23.2039 C53.8876,24.9139 44.6656,28.2589 35.5376,31.8559 C33.4436,32.6819 31.5206,32.6939 29.4366,32.1579 C20.6626,29.9049 15.2526,23.5969 14.8226,14.5239 C14.6866,11.6419 15.4376,8.7179 15.7816,5.8109 C15.9516,5.8469 16.1216,5.8809 16.2916,5.9149" id="Fill-7" fill="#192534"></path>
            <g id="Group-11" transform="translate(0.000000, 30.585300)">
                <mask id="mask-6" fill="white">
                    <use xlink:href="#path-5"></use>
                </mask>
                <g id="Clip-10"></g>
                <path d="M-0.0004,2.0318 C1.6236,2.4918 2.9496,2.9318 4.3066,3.2378 C6.8896,3.8208 9.3756,3.3618 11.6706,2.1368 C16.1676,-0.2612 20.4316,0.0798 24.5916,2.9288 C25.7016,3.6888 26.8966,4.3268 28.2856,5.1598 C24.8316,7.7408 21.2986,9.7218 17.2066,10.3048 C14.5236,10.6878 11.7226,10.9198 9.0576,10.5758 C4.3026,9.9648 1.7066,6.6248 -0.0004,2.0318" id="Fill-9" fill="#192534" mask="url(#mask-6)"></path>
            </g>
        </g>
    </g>
</svg>