<?xml version="1.0" encoding="UTF-8"?>
<svg width="55px" height="55px" viewBox="0 0 55 55" version="1.1" xmlns="http://www.w3.org/2000/svg" xmlns:xlink="http://www.w3.org/1999/xlink">
    <!-- Generator: Sketch 47.1 (45422) - http://www.bohemiancoding.com/sketch -->
    <title>Group 38</title>
    <desc>Created with Sketch.</desc>
    <defs>
        <path d="M17.4948148,0.0609786756 C17.4948148,0.0467070707 17.4948148,0.0311380471 17.4948148,0.0168664422 C19.7905556,0.0557890011 22.0888889,0.0700606061 24.3846296,0.144013468 C26.5222222,0.211479237 28.5755556,0.637032548 30.3644444,1.90331313 C32.4514815,3.37977553 33.6038889,5.44137374 34.0174074,7.93760718 C34.3194444,9.7630752 34.3103704,11.6105993 34.3168519,13.4529338 C34.3246296,16.366936 34.3375926,19.2835331 34.2909259,22.1962379 C34.2624074,23.9853782 34.207963,25.7797082 33.5987037,27.5026801 C32.4527778,30.7397396 30.1622222,32.6884624 26.8333333,33.3229001 C25.3387037,33.6070348 23.787037,33.6770954 22.26,33.7004489 C18.9038889,33.7523457 15.5490741,33.7380741 12.1955556,33.6965567 C10.4066667,33.6732031 8.61518519,33.6122245 6.8937037,33.0037351 C3.65944444,31.8568171 1.77074074,29.5513042 1.05388889,26.2363996 C0.725925926,24.7249068 0.705185185,23.1861684 0.694814815,21.6526195 C0.670185185,18.2949001 0.663703704,14.9358833 0.705185185,11.5807587 C0.728518519,9.79161841 0.789444444,7.99599102 1.3987037,6.27561392 C2.54592593,3.03855443 4.84555556,1.14821549 8.15888889,0.430742985 C9.66907407,0.102496072 11.2064815,0.0986038159 12.7387037,0.0687631874 C14.3227778,0.0363277217 15.9094444,0.0609786756 17.4948148,0.0609786756 Z M13.2533333,30.6735713 C14.6662963,30.6930325 16.0805556,30.7034119 17.4935185,30.7034119 C18.9064815,30.7034119 20.3207407,30.6930325 21.7324074,30.6722738 C23.1648148,30.6502177 24.6127778,30.5944287 26.0244444,30.3764624 C28.4498148,30.000211 30.1246296,28.6262447 30.7935185,26.2078563 C31.0151852,25.4112413 31.137037,24.570514 31.1707407,23.7440584 C31.2614815,21.4606016 31.2835185,19.1719551 31.3314815,16.8859035 L31.2835185,16.8859035 C31.2835185,15.4704198 31.3185185,14.054936 31.2731481,12.6420471 C31.2251852,11.2083996 31.1733333,9.76437262 30.9788889,8.34759147 C30.6262963,5.78908193 28.8996296,4.0181055 26.3783333,3.44983614 C24.8564815,3.10731762 23.3022222,3.12807632 21.7609259,3.10472278 C18.922037,3.06320539 16.0831481,3.06190797 13.2442593,3.1060202 C11.8131481,3.12807632 10.3664815,3.18127048 8.95481481,3.40312907 C6.57740741,3.77808305 4.94277778,5.12480359 4.21296296,7.47961841 C3.77222222,8.90937374 3.77611111,10.3897284 3.74759259,11.8597037 C3.70481481,14.1574321 3.68407407,16.4590527 3.71518519,18.7580786 C3.7437037,20.832651 3.75277778,22.9176027 3.95111111,24.9804983 C4.21814815,27.7310258 5.79055556,29.6745589 8.60092593,30.3219708 C10.1331481,30.6774635 11.6990741,30.6502177 13.2533333,30.6735713 Z" id="path-1"></path>
        <path d="M17.4948148,0.0609786756 C17.4948148,0.0467070707 17.4948148,0.0311380471 17.4948148,0.0168664422 C19.7905556,0.0557890011 22.0888889,0.0700606061 24.3846296,0.144013468 C26.5222222,0.211479237 28.5755556,0.637032548 30.3644444,1.90331313 C32.4514815,3.37977553 33.6038889,5.44137374 34.0174074,7.93760718 C34.3194444,9.7630752 34.3103704,11.6105993 34.3168519,13.4529338 C34.3246296,16.366936 34.3375926,19.2835331 34.2909259,22.1962379 C34.2624074,23.9853782 34.207963,25.7797082 33.5987037,27.5026801 C32.4527778,30.7397396 30.1622222,32.6884624 26.8333333,33.3229001 C25.3387037,33.6070348 23.787037,33.6770954 22.26,33.7004489 C18.9038889,33.7523457 15.5490741,33.7380741 12.1955556,33.6965567 C10.4066667,33.6732031 8.61518519,33.6122245 6.8937037,33.0037351 C3.65944444,31.8568171 1.77074074,29.5513042 1.05388889,26.2363996 C0.725925926,24.7249068 0.705185185,23.1861684 0.694814815,21.6526195 C0.670185185,18.2949001 0.663703704,14.9358833 0.705185185,11.5807587 C0.728518519,9.79161841 0.789444444,7.99599102 1.3987037,6.27561392 C2.54592593,3.03855443 4.84555556,1.14821549 8.15888889,0.430742985 C9.66907407,0.102496072 11.2064815,0.0986038159 12.7387037,0.0687631874 C14.3227778,0.0363277217 15.9094444,0.0609786756 17.4948148,0.0609786756 Z M13.2533333,30.6735713 C14.6662963,30.6930325 16.0792593,30.7034119 17.4935185,30.7034119 C18.9064815,30.7034119 20.3194444,30.6930325 21.7324074,30.6722738 C23.1648148,30.6502177 24.6127778,30.5944287 26.0244444,30.3764624 C28.4498148,30.000211 30.1246296,28.6262447 30.7935185,26.2078563 C31.0151852,25.4112413 31.137037,24.570514 31.1707407,23.7440584 C31.2614815,21.4606016 31.2835185,19.1719551 31.3314815,16.8859035 L31.2835185,16.8859035 C31.2835185,15.4704198 31.3185185,14.054936 31.2731481,12.6420471 C31.2251852,11.2083996 31.1733333,9.76437262 30.9788889,8.34759147 C30.6262963,5.78908193 28.8996296,4.0181055 26.3783333,3.44983614 C24.8564815,3.10731762 23.3022222,3.12807632 21.7609259,3.10472278 C18.922037,3.06320539 16.0831481,3.06190797 13.2442593,3.1060202 C11.8131481,3.12807632 10.3664815,3.18127048 8.95481481,3.40312907 C6.57740741,3.77808305 4.94277778,5.12480359 4.21296296,7.47961841 C3.77222222,8.90937374 3.77611111,10.3897284 3.74759259,11.8597037 C3.70481481,14.1574321 3.68407407,16.4590527 3.71518519,18.7580786 C3.7437037,20.832651 3.75277778,22.9176027 3.95111111,24.9804983 C4.21814815,27.7310258 5.79055556,29.6745589 8.60092593,30.3219708 C10.1331481,30.6774635 11.6990741,30.6502177 13.2533333,30.6735713 Z" id="path-3"></path>
        <path d="M-3.15068474e-15,8.64973737 C-0.0103703704,4.06984961 3.79685185,0.2671156 8.42722222,0.265818182 C8.45055556,0.265818182 8.47259259,0.2671156 8.49592593,0.2671156 C13.0731481,0.303443322 16.9011111,4.10747475 16.8518519,8.7976431 C16.8025926,13.3969921 13.0627778,17.1335578 8.42074074,17.1335578 C3.71648148,17.1335578 0.0103703704,13.3905051 -3.15068474e-15,8.64973737 Z M2.95685185,8.7003367 C2.95296296,11.7025634 5.425,14.1780382 8.42074074,14.1780382 C8.42851852,14.1780382 8.4362963,14.1780382 8.44407407,14.1780382 C11.4372222,14.1637666 13.895,11.6895892 13.8885185,8.69255219 C13.8807407,5.69681257 11.4112963,3.23041975 8.41944444,3.23431201 C5.42111111,3.23950168 2.95944444,5.70329966 2.95685185,8.7003367 Z" id="path-5"></path>
        <path d="M8.42722222,0 C8.45055556,0 8.47259259,0 8.49592593,0 C13.0731481,0.0363277217 16.9011111,3.84035915 16.8518519,8.5305275 C16.8025926,13.1298765 13.0627778,16.8664422 8.42074074,16.8664422 C3.71648148,16.8664422 0.0103703704,13.1233895 -3.15068474e-15,8.38262177 C-0.0103703704,3.80273401 3.79685185,0 8.42722222,0 Z M2.95685185,8.4332211 C2.95296296,11.4367452 5.425,13.9109226 8.42074074,13.9109226 C8.42981481,13.9109226 8.4362963,13.9109226 8.44407407,13.9109226 C11.4372222,13.896651 13.895,11.4224736 13.8885185,8.42543659 C13.8807407,5.42969697 11.4112963,2.96330415 8.41944444,2.96719641 C5.42111111,2.97238608 2.95944444,5.43618406 2.95685185,8.4332211 Z" id="path-7"></path>
        <path d="M0.103551198,1.93704602 C0.102254902,2.99833446 1.00318083,3.89485073 2.06744009,3.89225589 C3.12003268,3.89095847 3.9885512,3.01649832 3.99244009,1.95261504 C3.99632898,0.840727273 3.17058824,0.00129741859 2.06873638,-3.99699942e-11 C0.982440087,-0.00129741867 0.104847495,0.864080808 0.103551198,1.93704602 Z" id="path-9"></path>
    </defs>
    <g id="Desktop-Site" stroke="none" stroke-width="1" fill="none" fill-rule="evenodd">
        <g id="2_Product-Page" transform="translate(-650.000000, -3345.000000)">
            <g id="Group-18" transform="translate(648.000000, 3345.000000)">
                <g id="Group-38" transform="translate(1.000000, 0.000000)">
                    <g id="Analyze-Icon" transform="translate(0.993769, 0.000000)" fill="#23E6BF">
                        <path d="M8.02766355,46.93475 C-2.67588785,36.19775 -2.67588785,18.78975 8.02766355,8.05275 C18.731215,-2.68425 36.0849844,-2.68425 46.7885358,8.05275 C57.4920872,18.78975 57.4920872,36.19775 46.7885358,46.93475 C36.0849844,57.67175 18.731215,57.67175 8.02766355,46.93475 Z" id="Fill-1"></path>
                    </g>
                    <g id="Group-4" transform="translate(11.000000, 11.000000)">
                        <g id="Page-1">
                            <path d="M31.3318704,16.8860332 L31.2826111,16.8847358 C31.2826111,15.4705495 31.3202037,14.0550658 31.2722407,12.6421769 C31.2242778,11.2085293 31.1737222,9.76579978 30.9779815,8.34642379 C30.6266852,5.78921167 28.9000185,4.01823524 26.3774259,3.4512633 C24.8555741,3.10744736 23.3039074,3.12690864 21.7613148,3.10485253 C18.9224259,3.06333513 16.083537,3.06203771 13.2446481,3.10614994 C11.813537,3.12820606 10.3668704,3.18140022 8.9552037,3.40325881 C6.5777963,3.77691538 4.94316667,5.12363591 4.21464815,7.47974815 C3.77131481,8.9108009 3.7752037,10.3898581 3.74798148,11.858536 C3.70390741,14.1575618 3.68446296,16.4591825 3.71557407,18.7582083 C3.7427963,20.8327807 3.75187037,22.916435 3.9515,24.9793306 C4.21853704,27.7298581 5.78964815,29.6733912 8.60131481,30.3221006 C10.133537,30.6762958 11.699463,30.6503475 13.2537222,30.6724036 C16.0796481,30.7126236 18.9068704,30.7152184 21.7327963,30.6711062 C23.1652037,30.6490501 24.6118704,30.5945585 26.023537,30.3752947 C28.4502037,29.9990433 30.1250185,28.6263744 30.7939074,26.2079861 C31.0142778,25.411371 31.1374259,24.5693464 31.1711296,23.7428907 C31.2631667,21.4594339 31.2826111,19.1720848 31.3318704,16.8860332 M17.4939074,0.0169961841 C19.7909444,0.055918743 22.0892778,0.0701903479 24.3850185,0.142845791 C26.5226111,0.21031156 28.5772407,0.63716229 30.3648333,1.90344287 C32.4518704,3.38120269 33.6042778,5.44150348 34.0177963,7.93773692 C34.3211296,9.76320494 34.3107593,11.6094316 34.3172407,13.4517661 C34.3250185,16.3670658 34.3366852,19.2823654 34.2913148,22.1963677 C34.2640926,23.985508 34.2083519,25.7798379 33.5990926,27.5015125 C32.4531667,30.7385719 30.1626111,32.6872947 26.8337222,33.3217324 C25.3377963,33.6071645 23.7874259,33.6759277 22.2590926,33.6992813 C18.9042778,33.751178 15.549463,33.7382038 12.1959444,33.6966864 C10.4083519,33.6733329 8.61427778,33.6123542 6.89409259,33.0025675 C3.65853704,31.8569468 1.77242593,29.5514339 1.05298148,26.2365293 C0.726314815,24.7250366 0.705574074,23.1850007 0.693907407,21.6527493 C0.669277778,18.2950299 0.664092593,14.9373104 0.705574074,11.579591 C0.728907407,9.79045073 0.788537037,7.99612076 1.39909259,6.27444624 C2.54501852,3.03868418 4.84594444,1.14834523 8.15798148,0.429575309 C9.66816667,0.101328395 11.2068704,0.0987335578 12.7390926,0.0675955107 C14.3231667,0.0364574635 15.908537,0.0611084175 17.4939074,0.0611084175 C17.4939074,0.0468368126 17.4939074,0.031267789 17.4939074,0.0169961841" id="Fill-1" fill="#192534"></path>
                            <g id="Group-5">
                                <mask id="mask-2" fill="white">
                                    <use xlink:href="#path-1"></use>
                                </mask>
                                <g id="Clip-4"></g>
                                <polygon id="Fill-3" fill="#192534" mask="url(#mask-2)" points="-469.880185 1455.7037 1189.37907 1455.7037 1189.37907 -5642.47363 -469.880185 -5642.47363"></polygon>
                            </g>
                            <g id="Group-8">
                                <mask id="mask-4" fill="white">
                                    <use xlink:href="#path-3"></use>
                                </mask>
                                <g id="Clip-7"></g>
                                <polygon id="Fill-6" fill="#192534" mask="url(#mask-4)" points="-5.80611111 40.2199776 40.8061111 40.2199776 40.8061111 -6.47022671 -5.80611111 -6.47022671"></polygon>
                            </g>
                            <path d="M22.9620741,16.2107268 C22.9555926,13.2136898 20.4835556,10.7485944 17.493,10.7524866 C14.495963,10.7563789 12.0342963,13.2201769 12.0304074,16.2172139 C12.0265185,19.2272251 14.5115185,21.7078896 17.5176296,21.6949154 C20.5120741,21.6819412 22.9685556,19.2077639 22.9620741,16.2107268 M17.4942963,24.650435 C12.790037,24.650435 9.08522222,20.9073823 9.07355556,16.167912 C9.06318519,11.5646707 12.908,7.7476651 17.5694815,7.78529024 C22.1467037,7.82161796 25.975963,11.6256494 25.9254074,16.3145203 C25.8761481,20.9138694 22.1363333,24.650435 17.4942963,24.650435" id="Fill-9" fill="#192534"></path>
                            <g id="Group-13" transform="translate(9.074074, 7.517396)">
                                <mask id="mask-6" fill="white">
                                    <use xlink:href="#path-5"></use>
                                </mask>
                                <g id="Clip-12"></g>
                                <polygon id="Fill-11" fill="#192534" mask="url(#mask-6)" points="-479.62963 1448.18631 1179.62963 1448.18631 1179.62963 -5649.99102 -479.62963 -5649.99102"></polygon>
                            </g>
                            <g id="Group-16" transform="translate(9.074074, 7.784512)">
                                <mask id="mask-8" fill="white">
                                    <use xlink:href="#path-7"></use>
                                </mask>
                                <g id="Clip-15"></g>
                                <polygon id="Fill-14" fill="#192534" mask="url(#mask-8)" points="-6.48148148 23.3535354 23.3333333 23.3535354 23.3333333 -6.48709315 -6.48148148 -6.48709315"></polygon>
                            </g>
                            <path d="M26.430963,6.48709315 C27.5328148,6.48839057 28.3585556,7.32782043 28.3546667,8.43970819 C28.3520741,9.50359147 27.4835556,10.3780516 26.4296667,10.379349 C25.3654074,10.3806465 24.4657778,9.48413019 24.4657778,8.42284175 C24.4670741,7.35117396 25.3446667,6.48579574 26.430963,6.48709315" id="Fill-17" fill="#192534"></path>
                            <g id="Group-22" transform="translate(24.362745, 6.487093)">
                                <mask id="mask-10" fill="white">
                                    <use xlink:href="#path-9"></use>
                                </mask>
                                <g id="Clip-20"></g>
                                <polygon id="Fill-19" fill="#192534" mask="url(#mask-10)" points="-493.785338 1449.21661 1165.47392 1449.21661 1165.47392 -5648.96072 -493.785338 -5648.96072"></polygon>
                                <polygon id="Fill-21" fill="#192534" mask="url(#mask-10)" points="-6.37793028 10.379349 10.4739216 10.379349 10.4739216 -6.48709315 -6.37793028 -6.48709315"></polygon>
                            </g>
                        </g>
                    </g>
                </g>
            </g>
        </g>
    </g>
</svg>