<?xml version="1.0" encoding="UTF-8"?>
<svg width="89px" height="19px" viewBox="0 0 89 19" version="1.1" xmlns="http://www.w3.org/2000/svg" xmlns:xlink="http://www.w3.org/1999/xlink">
    <!-- Generator: Sketch 47.1 (45422) - http://www.bohemiancoding.com/sketch -->
    <title>Group</title>
    <desc>Created with Sketch.</desc>
    <defs>
        <polygon id="path-1" points="0 5.53583333 0 0.536833333 15.721408 0.536833333 15.721408 5.53583333"></polygon>
        <polygon id="path-3" points="0 5.62496667 0 0.625966667 15.721408 0.625966667 15.721408 5.62496667 1.40898578e-15 5.62496667"></polygon>
        <polygon id="path-5" points="4.72538675e-17 7.73593846 4.72538675e-17 0.512707692 15.721344 0.512707692 15.721344 7.73593846"></polygon>
    </defs>
    <g id="Symbols" stroke="none" stroke-width="1" fill="none" fill-rule="evenodd">
        <g id="Mobile-Header" transform="translate(-20.000000, -18.000000)">
            <g id="Group-4">
                <g id="Mobile-Logo" transform="translate(20.000000, 18.000000)">
                    <g id="Group">
                        <g id="Group-3" transform="translate(24.000000, 0.000000)" fill="#192534">
                            <path d="M60.942375,17.6996483 L57.8555,17.6996483 L57.8555,5.60923448 L60.942375,5.60923448 L60.942375,7.26151034 C61.76925,6.18523448 63.227375,5.30882069 64.686125,5.30882069 L64.686125,8.41288966 C64.467375,8.36261379 64.1755,8.33778621 63.834875,8.33778621 C62.81425,8.33778621 61.453,8.93861379 60.942375,9.71447586 L60.942375,17.6996483 Z M52.628625,10.5157862 C52.556125,9.3644069 51.778,7.83688966 49.736125,7.83688966 C47.816125,7.83688966 46.98925,9.31413103 46.843625,10.5157862 L52.628625,10.5157862 Z M49.9305,18.0000621 C46.357375,18.0000621 43.65925,15.5216483 43.65925,11.6417172 C43.65925,8.13730345 46.163,5.30882069 49.736125,5.30882069 C53.23675,5.30882069 55.618625,8.01254483 55.618625,11.9675793 L55.618625,12.6683379 L46.892375,12.6683379 C47.08675,14.1952345 48.278,15.4719931 50.271125,15.4719931 C51.268,15.4719931 52.653,15.0213724 53.40675,14.2703379 L54.768,16.3229586 C53.601125,17.4240621 51.753625,18.0000621 49.9305,18.0000621 L49.9305,18.0000621 Z M40.6155,17.6996483 L37.503625,17.6996483 L37.503625,8.38806207 L35.55925,8.38806207 L35.55925,5.60923448 L37.503625,5.60923448 L37.503625,4.95875172 C37.503625,2.3804069 39.108,0.75357931 41.466125,0.75357931 C42.58425,0.75357931 43.7755,1.05337241 44.52925,1.87951034 L43.362375,3.75709655 C43.046125,3.43185517 42.633,3.2562 42.073625,3.2562 C41.223,3.2562 40.6155,3.8322 40.6155,4.95875172 L40.6155,5.60923448 L42.997375,5.60923448 L42.997375,8.38806207 L40.6155,8.38806207 L40.6155,17.6996483 Z M32.66675,17.6996483 L29.554875,17.6996483 L29.554875,8.38806207 L27.609875,8.38806207 L27.609875,5.60923448 L29.554875,5.60923448 L29.554875,4.95875172 C29.554875,2.3804069 31.15925,0.75357931 33.517375,0.75357931 C34.6355,0.75357931 35.82675,1.05337241 36.579875,1.87951034 L35.413625,3.75709655 C35.097375,3.43185517 34.68425,3.2562 34.124875,3.2562 C33.27425,3.2562 32.66675,3.8322 32.66675,4.95875172 L32.66675,5.60923448 L35.048625,5.60923448 L35.048625,8.38806207 L32.66675,8.38806207 L32.66675,17.6996483 Z M25.683625,17.6996483 L22.596125,17.6996483 L22.596125,16.1727517 C21.79425,17.0988207 20.38425,18.0000621 18.463625,18.0000621 C15.887375,18.0000621 14.67175,16.548269 14.67175,14.1952345 L14.67175,5.60923448 L17.758625,5.60923448 L17.758625,12.9439241 C17.758625,14.6210276 18.609875,15.1715793 19.922375,15.1715793 C21.113625,15.1715793 22.06175,14.4956483 22.596125,13.7948897 L22.596125,5.60923448 L25.683625,5.60923448 L25.683625,17.6996483 Z M3.64175,13.8197172 C4.152375,14.5955793 5.294875,15.1715793 6.29175,15.1715793 C8.0905,15.1715793 9.28175,13.7694414 9.28175,11.6671655 C9.28175,9.56426897 8.0905,8.13730345 6.29175,8.13730345 C5.294875,8.13730345 4.152375,8.73813103 3.64175,9.53944138 L3.64175,13.8197172 Z M3.64175,17.6996483 L0.554875,17.6996483 L0.554875,0.476751724 L3.64175,0.476751724 L3.64175,7.16157931 C4.5655,5.93509655 5.878,5.30882069 7.26425,5.30882069 C10.253625,5.30882069 12.466125,7.71213103 12.466125,11.6671655 C12.466125,15.6973034 10.229875,18.0000621 7.26425,18.0000621 C5.85425,18.0000621 4.5655,17.3489586 3.64175,16.1479241 L3.64175,17.6996483 Z" id="Fill-1"></path>
                        </g>
                        <g id="Group-6" transform="translate(0.000000, 13.000000)">
                            <mask id="mask-2" fill="white">
                                <use xlink:href="#path-1"></use>
                            </mask>
                            <g id="Clip-5"></g>
                            <path d="M15.606208,1.48433333 L13.818048,0.594333333 C13.664448,0.517666667 13.413568,0.517666667 13.259968,0.594333333 L8.139328,3.143 C7.986368,3.21966667 7.734848,3.21966667 7.581888,3.143 L2.461248,0.594333333 C2.307648,0.517666667 2.056768,0.517666667 1.903168,0.594333333 L0.115008,1.48433333 C-0.038592,1.561 -0.038592,1.68566667 0.115008,1.76166667 L7.581888,5.47833333 C7.734848,5.555 7.986368,5.555 8.139328,5.47833333 L15.606208,1.76166667 C15.759808,1.68566667 15.759808,1.561 15.606208,1.48433333" id="Fill-4" fill="#192534" mask="url(#mask-2)"></path>
                        </g>
                        <g id="Group-9" transform="translate(0.000000, 8.000000)">
                            <mask id="mask-4" fill="white">
                                <use xlink:href="#path-3"></use>
                            </mask>
                            <g id="Clip-8"></g>
                            <path d="M15.606208,1.57346667 L13.818048,0.683466667 C13.664448,0.6068 13.413568,0.6068 13.259968,0.683466667 L8.139328,3.23213333 C7.986368,3.30813333 7.734848,3.30813333 7.581888,3.23213333 L2.461248,0.683466667 C2.307648,0.6068 2.056768,0.6068 1.903168,0.683466667 L0.115008,1.57346667 C-0.038592,1.65013333 -0.038592,1.7748 0.115008,1.85146667 L7.581888,5.56746667 C7.734848,5.64413333 7.986368,5.64413333 8.139328,5.56746667 L15.606208,1.85146667 C15.759808,1.7748 15.759808,1.65013333 15.606208,1.57346667" id="Fill-7" fill="#192534" mask="url(#mask-4)"></path>
                        </g>
                        <g id="Group-12" transform="translate(0.000000, 1.000000)">
                            <mask id="mask-6" fill="white">
                                <use xlink:href="#path-5"></use>
                            </mask>
                            <g id="Clip-11"></g>
                            <path d="M0.114944,4.25255385 L7.581824,7.68332308 C7.734784,7.75347692 7.986304,7.75347692 8.139264,7.68332308 L15.606144,4.25255385 C15.759744,4.18178462 15.759744,4.06670769 15.606144,3.99655385 L8.139264,0.565784615 C7.986304,0.495015385 7.734784,0.495015385 7.581824,0.565784615 L0.114944,3.99655385 C-0.038656,4.06670769 -0.038656,4.18178462 0.114944,4.25255385" id="Fill-10" fill="#192534" mask="url(#mask-6)"></path>
                        </g>
                    </g>
                </g>
            </g>
        </g>
    </g>
</svg>