<?xml version="1.0" encoding="UTF-8"?>
<svg width="55px" height="54px" viewBox="0 0 55 54" version="1.1" xmlns="http://www.w3.org/2000/svg" xmlns:xlink="http://www.w3.org/1999/xlink">
    <!-- Generator: Sketch 47.1 (45422) - http://www.bohemiancoding.com/sketch -->
    <title>Reply Icon</title>
    <desc>Created with Sketch.</desc>
    <defs>
        <polygon id="path-1" points="28.3190503 18.9997765 28.3190503 0.01766399 0.0199399986 0.01766399 0.0199399986 18.9997765 28.3190503 18.9997765"></polygon>
    </defs>
    <g id="Desktop-Site" stroke="none" stroke-width="1" fill="none" fill-rule="evenodd">
        <g id="1_Homepage" transform="translate(-673.000000, -1591.000000)">
            <g id="Group-4" transform="translate(671.000000, 1591.000000)">
                <g id="Buffer-Reply">
                    <g id="Reply-Icon" transform="translate(2.777085, 0.000000)">
                        <path d="M7.88964232,46.0918663 C-2.62988077,35.5476881 -2.62988077,18.4523119 7.88964232,7.90813367 C18.4091654,-2.63604456 35.464568,-2.63604456 45.9840911,7.90813367 C56.5036142,18.4523119 56.5036142,35.5476881 45.9840911,46.0918663 C35.464568,56.6360446 18.4091654,56.6360446 7.88964232,46.0918663 Z" id="Fill-1" fill="#23E6BF"></path>
                        <g id="Page-1" transform="translate(8.978956, 15.000000)">
                            <path d="M16.1109451,1.59459035 L20.9148803,6.06604685 C21.0865295,6.22565911 21.050629,6.51134192 20.846445,6.62121993 L1.17633873,17.1579423 C1.01366461,17.2446881 0.950838738,17.4494082 1.03498053,17.6159601 L1.6408014,18.8165219 C1.72494319,18.9830738 1.92351781,19.047844 2.08507004,18.9622548 L27.7561686,5.21015502 C28.018691,5.07020514 27.9839124,4.67348771 27.701196,4.58327209 L16.429562,1.01628506 C16.091873,0.909876887 15.8495447,1.35054552 16.1109451,1.59459035" id="Fill-1" fill="#192534"></path>
                            <path d="M16.6758152,0.77872123 L16.6769529,0.779839923 C16.6758152,0.77872123 16.6758152,0.77872123 16.6758152,0.77872123 L16.6758152,0.77872123 Z M1.78251559,16.912518 L1.9577175,17.2458887 L26.5417303,4.68631742 L18.2628715,2.18827497 L21.5473384,5.10470877 C21.8260687,5.35082132 21.9625896,5.71663408 21.915945,6.08132814 C21.8681626,6.4471409 21.6417654,6.76708722 21.3095643,6.93600993 L1.78251559,16.912518 Z M1.53791553,17.4606778 L1.53677786,17.4617965 L1.53791553,17.4606778 Z M1.75862443,19 C1.34564851,19 0.945187007,18.7796174 0.741543234,18.3947868 L0.128336564,17.2324644 C-0.161770487,16.6820672 0.0566630572,16.0019016 0.615261341,15.7166348 L19.9557314,5.83521558 L15.5916112,1.95894281 C15.1900121,1.6031983 15.0967227,1.03154595 15.3640763,0.569525556 C15.6302922,0.107505165 16.1786514,-0.105046589 16.694018,0.0504517994 L28.1242359,3.49938368 C28.5702044,3.63474559 28.8853402,4.01622005 28.9274342,4.47376567 C28.9695282,4.93019259 28.7294788,5.36088956 28.3153652,5.57232263 L2.28309247,18.8724689 C2.11585429,18.9586083 1.93610168,19 1.75862443,19 L1.75862443,19 Z" id="Fill-3" fill="#192534"></path>
                            <path d="M20.8025255,24.4054265 L15.9985958,19.9340966 C15.8269467,19.7744889 15.8628472,19.4888142 16.067031,19.3789393 L35.7382368,8.84251537 C35.8997889,8.75577204 35.9626147,8.55105776 35.878473,8.38451056 L35.2726528,7.18398278 C35.189633,7.01743558 34.9899367,6.95151064 34.8283846,7.03825398 L9.15731523,20.7899642 C8.89479315,20.9299101 8.92957171,21.3266163 9.2122878,21.4168294 L20.4850308,24.9837154 C20.8227195,25.0901206 21.0639256,24.6494644 20.8025255,24.4054265" id="Fill-5" fill="#192534"></path>
                            <g id="Group-9" transform="translate(7.981294, 6.000000)">
                                <mask id="mask-2" fill="white">
                                    <use xlink:href="#path-1"></use>
                                </mask>
                                <g id="Clip-8"></g>
                                <path d="M26.8158005,1.55442353 L26.8146877,1.55442353 L26.8158005,1.55442353 Z M2.35808478,14.3179529 L10.4557597,16.8136588 L7.24317381,13.8999529 C6.97054356,13.6529529 6.8358976,13.2886 6.88263421,12.9231294 C6.92937083,12.5587765 7.15192613,12.2391294 7.47685689,12.0692471 L26.5754407,2.10207059 L26.4029604,1.77012941 L2.35808478,14.3179529 Z M12.3241115,18.9997765 C12.2128339,18.9997765 12.1015562,18.9830118 11.9902786,18.9494824 L0.810212603,15.5026588 C0.374004197,15.3685412 0.0657650938,14.9863059 0.0245923617,14.5303059 C-0.0165803705,14.0743059 0.218215481,13.6428941 0.622153367,13.4316588 L26.0858191,0.143952941 C26.6310796,-0.141047059 27.3076477,0.0724235294 27.5936313,0.622305882 L28.1934178,1.78354118 C28.4782886,2.33342353 28.2635228,3.01183529 27.7171495,3.29795294 L8.7999482,13.1701294 L13.068559,17.0416588 C13.4602564,17.3970706 13.5526168,17.9681882 13.2922271,18.4297765 C13.088589,18.7907765 12.7169216,18.9997765 12.3241115,18.9997765 L12.3241115,18.9997765 Z" id="Fill-7" fill="#192534" mask="url(#mask-2)"></path>
                            </g>
                        </g>
                    </g>
                </g>
            </g>
        </g>
    </g>
</svg>